<svg width="900" height="1280" viewBox="0 0 900 1280" fill="none" xmlns="http://www.w3.org/2000/svg">
  <rect width="900" height="1280" fill="#F6EFE5"/>
  <rect x="58" y="58" width="784" height="1164" rx="44" fill="#FFFFFF"/>
  <rect x="58" y="58" width="784" height="1164" rx="44" stroke="#E2D6C6" stroke-width="6"/>
  <circle cx="737" cy="177" r="116" fill="#E9B57D" fill-opacity="0.26"/>
  <circle cx="172" cy="1087" r="160" fill="#2C3279" fill-opacity="0.14"/>
  <text x="110" y="162" fill="#2C3279" font-size="46" font-family="Georgia, serif" letter-spacing="8">CLASSICAL CONCERT</text>
  <text x="110" y="392" fill="#121A38" font-size="104" font-family="Georgia, serif" font-weight="700">GUL</text>
  <text x="110" y="500" fill="#121A38" font-size="104" font-family="Georgia, serif" font-weight="700">ALMATY</text>
  <text x="110" y="600" fill="#A56B38" font-size="40" font-family="Arial, sans-serif" letter-spacing="4">1 MAY 2026  •  15:00</text>
  <text x="110" y="698" fill="#46506A" font-size="38" font-family="Arial, sans-serif">Kazakh State Philharmonic named after Zhambyl</text>
  <text x="110" y="748" fill="#46506A" font-size="38" font-family="Arial, sans-serif">Almaty, Kaldyakov Street, 35</text>
  <path d="M111 892C210 764 300 701 450 701C600 701 690 764 789 892" stroke="#2C3279" stroke-width="14" stroke-linecap="round"/>
  <path d="M143 951C229 850 314 808 450 808C586 808 671 850 757 951" stroke="#D59A64" stroke-width="10" stroke-linecap="round"/>
  <text x="110" y="1082" fill="#121A38" font-size="74" font-family="Georgia, serif" font-weight="700">from 1 500 ₸</text>
  <text x="110" y="1148" fill="#6B7280" font-size="30" font-family="Arial, sans-serif" letter-spacing="3">SDU TICKETON DEMO POSTER</text>
</svg>
