<svg width="512" height="512" viewBox="0 0 512 512" fill="none" xmlns="http://www.w3.org/2000/svg">
  <rect width="512" height="512" rx="104" fill="#090B18"/>
  <circle cx="256" cy="256" r="184" fill="url(#bg)"/>
  <path d="M205 118C189 168 191 205 208 236C225 268 251 292 281 321C310 292 336 268 353 236C370 205 372 168 356 118" stroke="#252B71" stroke-width="20" stroke-linecap="round"/>
  <path d="M178 191C175 229 186 258 211 283C236 309 263 332 286 360" stroke="#252B71" stroke-width="14" stroke-linecap="round"/>
  <path d="M334 191C337 229 326 258 301 283C276 309 249 332 226 360" stroke="#252B71" stroke-width="14" stroke-linecap="round"/>
  <path d="M234 160L256 122L278 160L256 198L234 160Z" fill="#F1A86D"/>
  <path d="M206 377L256 427L306 377" stroke="#F1A86D" stroke-width="8" stroke-linecap="round"/>
  <defs>
    <linearGradient id="bg" x1="96" y1="88" x2="413" y2="430" gradientUnits="userSpaceOnUse">
      <stop stop-color="#11153D"/>
      <stop offset="1" stop-color="#1F235F"/>
    </linearGradient>
  </defs>
</svg>
