<svg width="512" height="512" viewBox="0 0 512 512" fill="none" xmlns="http://www.w3.org/2000/svg">
  <rect width="512" height="512" rx="104" fill="#0D102D"/>
  <path d="M205 118C189 168 191 205 208 236C225 268 251 292 281 321C310 292 336 268 353 236C370 205 372 168 356 118" stroke="#F1A86D" stroke-width="24" stroke-linecap="round"/>
  <path d="M178 191C175 229 186 258 211 283C236 309 263 332 286 360" stroke="#F8EEE6" stroke-width="16" stroke-linecap="round"/>
  <path d="M334 191C337 229 326 258 301 283C276 309 249 332 226 360" stroke="#F8EEE6" stroke-width="16" stroke-linecap="round"/>
  <path d="M234 160L256 122L278 160L256 198L234 160Z" fill="#F1A86D"/>
</svg>
